<?xml version="1.0" encoding="UTF-8"?>
<!DOCTYPE svg PUBLIC "-//W3C//DTD SVG 1.1//EN" "http://www.w3.org/Graphics/SVG/1.1/DTD/svg11.dtd">
<!-- Generated by Microsoft Visio, SVG Export trustzone_keyload.png trustzone_keyload --><svg xmlns="http://www.w3.org/2000/svg" width="6.13909in" height="4.76389in" viewBox="0 0 442.014 343" xml:space="preserve" color-interpolation-filters="sRGB" class="st16">
	<v:documentProperties xmlns:v="http://schemas.microsoft.com/visio/2003/SVGExtensions/" v:langID="1033" v:viewMarkup="false">
		<v:userDefs>
			<v:ud v:nameU="msvConvertTheme"/>
			<v:ud v:nameU="msvNoAutoConnect" v:val="VT0(1):26"/>
			<v:ud v:nameU="visTLShowProps" v:prompt="" v:val="VT0(0):26"/>
		</v:userDefs>
	</v:documentProperties>

	<style type="text/css">
	
		.st1 {fill:#a1b92e;stroke:none;stroke-linecap:round;stroke-linejoin:round;stroke-width:1.2}
		.st2 {fill:#000000;font-family:Arial;font-size:0.833336em;font-weight:bold}
		.st3 {fill:#a1b92e;stroke:#e27f26;stroke-dasharray:4,8;stroke-width:4}
		.st4 {fill:#007695;stroke:none;stroke-linecap:round;stroke-linejoin:round;stroke-width:1.2}
		.st5 {fill:#0597aa;stroke:none;stroke-linecap:round;stroke-linejoin:round;stroke-width:1.2}
		.st6 {fill:none;stroke:#000000;stroke-linecap:round;stroke-linejoin:round;stroke-width:1}
		.st7 {fill:#000000;font-family:Arial;font-size:0.833336em}
		.st8 {fill:#ffffff;font-family:Arial;font-size:0.833336em;font-weight:bold}
		.st9 {fill:#797777}
		.st10 {stroke:#797777;stroke-linecap:round;stroke-linejoin:round;stroke-width:0.72}
		.st11 {font-size:1em}
		.st12 {marker-end:url(#mrkr4-42);stroke:#000000;stroke-linecap:round;stroke-linejoin:round;stroke-width:2}
		.st13 {fill:#000000;fill-opacity:1;stroke:#000000;stroke-opacity:1;stroke-width:0.44247787610619}
		.st14 {fill:url(#grad7-46);stroke:#007695;stroke-linecap:round;stroke-linejoin:round;stroke-width:0.72}
		.st15 {fill:#ffffff;font-family:Arial;font-size:1.16666em;font-weight:bold}
		.st16 {fill:none;fill-rule:evenodd;font-size:12px;overflow:visible;stroke-linecap:square;stroke-miterlimit:3}
	
	</style>

	<defs id="Patterns_And_Gradients">
		<radialGradient id="grad7-46" cx="0" cy="0" r="1.4">
			<stop offset="0" stop-color="#ffffff" stop-opacity="1"/>
			<stop offset="1" stop-color="#007695" stop-opacity="1"/>
		</radialGradient>
	</defs>
	<defs id="Markers">
		<g id="lend4">
			<path d="M 2 1 L 0 0 L 2 -1 L 2 1 " style="stroke:none"/>
		</g>
		<marker xmlns:v="http://schemas.microsoft.com/visio/2003/SVGExtensions/" id="mrkr4-42" class="st13" v:arrowType="4" v:arrowSize="2" v:setback="4.52" refX="-4.52" orient="auto" markerUnits="strokeWidth" overflow="visible">
			<use xmlns:xlink="http://www.w3.org/1999/xlink" xlink:href="#lend4" transform="scale(-2.26,-2.26) "/>
		</marker>
	</defs>
	<g xmlns:v="http://schemas.microsoft.com/visio/2003/SVGExtensions/" v:mID="6" v:index="4" v:groupContext="foregroundPage">
		<v:userDefs>
			<v:ud v:nameU="msvThemeColors" v:val="VT0(254):26"/>
			<v:ud v:nameU="msvThemeOrder" v:val="VT0(0):26"/>
		</v:userDefs>
		<title>trustzone_keyload</title>
		<v:pageProperties v:drawingScale="1" v:pageScale="1" v:drawingUnits="19" v:shadowOffsetX="9" v:shadowOffsetY="-9"/>
		<g id="shape1-1" v:mID="1" v:groupContext="shape" transform="translate(126.514,-32)">
			<title>DMA block.260</title>
			<desc>Untrusted Region</desc>
			<v:userDefs>
				<v:ud v:nameU="msvThemeColors" v:val="VT0(254):26"/>
			</v:userDefs>
			<v:textBlock v:margins="rect(4,4,4,4)" v:verticalAlign="0"/>
			<v:textRect cx="67.5" cy="205.75" width="135" height="274.5"/>
			<rect x="0" y="68.5" width="135" height="274.5" class="st1"/>
			<text x="25.56" y="81.5" class="st2" v:langID="1033"><v:paragraph v:horizAlign="1"/><v:tabList/>Untrusted Region</text>		</g>
		<g id="shape2-4" v:mID="2" v:groupContext="shape" transform="translate(261.514,-32)">
			<title>memory block.261</title>
			<desc>Trusted Region</desc>
			<v:userDefs>
				<v:ud v:nameU="msvThemeColors" v:val="VT0(254):26"/>
			</v:userDefs>
			<v:textBlock v:margins="rect(4,4,4,4)" v:verticalAlign="0"/>
			<v:textRect cx="72" cy="205.75" width="144" height="274.5"/>
			<path d="M0 343 L144 343 L144 68.5 L0 68.5 L0 343 Z" class="st3"/>
			<text x="35.33" y="81.5" class="st2" v:langID="1033"><v:paragraph v:horizAlign="1"/><v:tabList/>Trusted Region</text>		</g>
		<g id="shape3-7" v:mID="3" v:groupContext="shape" transform="translate(297.514,-81.5)">
			<title>functional block.262</title>
			<desc>AES Engine</desc>
			<v:userDefs>
				<v:ud v:nameU="msvThemeColors" v:val="VT0(254):26"/>
			</v:userDefs>
			<v:textBlock v:margins="rect(4,4,4,4)"/>
			<v:textRect cx="36" cy="320.5" width="72" height="45"/>
			<rect x="0" y="298" width="72" height="45" class="st4"/>
			<text x="7.66" y="323.5" class="st2" v:langID="1033"><v:paragraph v:horizAlign="1"/><v:tabList/>AES Engine</text>		</g>
		<g id="shape4-10" v:mID="4" v:groupContext="shape" transform="translate(153.514,-180.5)">
			<title>external memory block.263</title>
			<desc>Flash</desc>
			<v:userDefs>
				<v:ud v:nameU="msvThemeColors" v:val="VT0(254):26"/>
			</v:userDefs>
			<v:textBlock v:margins="rect(4,4,4,4)" v:verticalAlign="0"/>
			<v:textRect cx="36" cy="289" width="72" height="108"/>
			<rect x="0" y="235" width="72" height="108" class="st5"/>
			<text x="22.94" y="248" class="st2" v:langID="1033"><v:paragraph v:horizAlign="1"/><v:tabList/>Flash</text>		</g>
		<g id="shape5-13" v:mID="5" v:groupContext="shape" transform="translate(108.514,-18.5)">
			<title>module background.264</title>
			<desc>ARM TrustZone Enabled Device</desc>
			<v:userDefs>
				<v:ud v:nameU="visVersion" v:val="VT0(11):26"/>
				<v:ud v:nameU="msvThemeColors" v:val="VT0(254):26"/>
			</v:userDefs>
			<v:textBlock v:margins="rect(4,4,4,4)" v:verticalAlign="0"/>
			<v:textRect cx="157.5" cy="190" width="315" height="306"/>
			<rect x="0" y="37" width="315" height="306" class="st6"/>
			<text x="85.8" y="50" class="st7" v:langID="1033"><v:paragraph v:horizAlign="1"/><v:tabList/>ARM TrustZone Enabled Device</text>		</g>
		<g id="shape6-16" v:mID="6" v:groupContext="shape" transform="translate(153.514,-50)">
			<title>external memory block.266</title>
			<desc>RAM</desc>
			<v:userDefs>
				<v:ud v:nameU="msvThemeColors" v:val="VT0(254):26"/>
			</v:userDefs>
			<v:textBlock v:margins="rect(4,4,4,4)" v:verticalAlign="0"/>
			<v:textRect cx="36" cy="298" width="72" height="90"/>
			<rect x="0" y="253" width="72" height="90" class="st5"/>
			<text x="24.61" y="266" class="st2" v:langID="1033"><v:paragraph v:horizAlign="1"/><v:tabList/>RAM</text>		</g>
		<g id="shape7-19" v:mID="7" v:groupContext="shape" transform="translate(297.514,-180.5)">
			<title>external memory block.267</title>
			<desc>Flash</desc>
			<v:userDefs>
				<v:ud v:nameU="msvThemeColors" v:val="VT0(254):26"/>
			</v:userDefs>
			<v:textBlock v:margins="rect(4,4,4,4)" v:verticalAlign="0"/>
			<v:textRect cx="36" cy="289" width="72" height="108"/>
			<rect x="0" y="235" width="72" height="108" class="st5"/>
			<text x="22.94" y="248" class="st2" v:langID="1033"><v:paragraph v:horizAlign="1"/><v:tabList/>Flash  </text>		</g>
		<g id="shape8-22" v:mID="8" v:groupContext="shape" transform="translate(153.514,-95)">
			<title>register.268</title>
			<desc>Plaintext Key</desc>
			<v:userDefs>
				<v:ud v:nameU="msvThemeColors" v:val="VT0(254):26"/>
			</v:userDefs>
			<v:textBlock v:margins="rect(4,4,4,4)"/>
			<v:textRect cx="36" cy="329.5" width="72" height="27"/>
			<rect x="0" y="316" width="72" height="27" class="st4"/>
			<text x="4.6" y="332.5" class="st8" v:langID="1033"><v:paragraph v:horizAlign="1"/><v:tabList/>Plaintext Key</text>		</g>
		<g id="shape9-25" v:mID="9" v:groupContext="shape" transform="translate(297.514,-234.5)">
			<title>register.275</title>
			<desc>Plaintext Key</desc>
			<v:userDefs>
				<v:ud v:nameU="msvThemeColors" v:val="VT0(254):26"/>
			</v:userDefs>
			<v:textBlock v:margins="rect(4,4,4,4)"/>
			<v:textRect cx="36" cy="334" width="72" height="18"/>
			<rect x="0" y="325" width="72" height="18" class="st4"/>
			<text x="4.6" y="337" class="st8" v:langID="1033"><v:paragraph v:horizAlign="1"/><v:tabList/>Plaintext Key</text>		</g>
		<g id="group10-28" transform="translate(18.5145,-72.5)" v:mID="10" v:groupContext="group">
			<v:custProps>
				<v:cp v:nameU="ShapeClass" v:lbl="ShapeClass" v:prompt="" v:type="0" v:format="" v:sortKey="" v:invis="true" v:ask="false" v:langID="1033" v:cal="0" v:val="VT4(Security)"/>
				<v:cp v:nameU="ShapeType" v:lbl="ShapeType" v:prompt="" v:type="0" v:format="" v:sortKey="" v:invis="true" v:ask="false" v:langID="1033" v:cal="0" v:val="VT4(Conceptual)"/>
				<v:cp v:nameU="SubShapeType" v:lbl="SubShapeType" v:prompt="" v:type="0" v:format="" v:sortKey="" v:invis="true" v:ask="false" v:langID="1033" v:cal="0" v:val="VT4(Key)"/>
			</v:custProps>
			<v:userDefs>
				<v:ud v:nameU="visVersion" v:prompt="" v:val="VT0(15):26"/>
				<v:ud v:nameU="ShapeClass" v:prompt="" v:val="VT0(5):26"/>
				<v:ud v:nameU="SolSH" v:prompt="" v:val="VT15({BF0433D9-CD73-4EB5-8390-8653BE590246}):41"/>
				<v:ud v:nameU="visLegendShape" v:prompt="" v:val="VT0(2):26"/>
				<v:ud v:nameU="msvThemeColors" v:val="VT0(254):26"/>
			</v:userDefs>
			<title>Key.279</title>
			<desc>Plaintext User Key</desc>
			<g id="shape11-29" v:mID="11" v:groupContext="shape" transform="translate(20.8029,5.68434E-014)">
				<title>Sheet.11</title>
				<v:userDefs>
					<v:ud v:nameU="msvThemeColors" v:val="VT0(254):26"/>
				</v:userDefs>
				<path d="M30.39 286.2 C30.39 277.8 23.59 271 15.2 271 C6.8 271 0 277.8 0 286.2 C-0 292.81 4.23 298.42 10.13 300.51         L10.13 339.08 L15.26 343 L20.26 339.08 L20.26 335.03 L21.61 335.03 L21.61 328.48 L20.16 327.34 L20.16         324.69 L21.61 324.34 L21.61 320.35 L19.99 318.55 L21.61 317.41 L21.61 314.05 L20.16 313.55 L20.06 309.5         L21.61 309.08 L21.61 304.77 L20.26 303.96 L20.26 300.51 C26.16 298.42 30.39 292.81 30.39 286.2 ZM17.09         275.87 A1.62117 1.62117 -180 1 0 13.85 275.87 A1.62117 1.62117 -180 1 0 17.09 275.87 Z" class="st9"/>
				<path d="M30.39 286.2 C30.39 277.8 23.59 271 15.2 271 C6.8 271 0 277.8 0 286.2 C-0 292.81 4.23 298.42 10.13 300.51         L10.13 339.08 L15.26 343 L20.26 339.08 L20.26 335.03 L21.61 335.03 L21.61 328.48 L20.16 327.34 L20.16         324.69 L21.61 324.34 L21.61 320.35 L19.99 318.55 L21.61 317.41 L21.61 314.05 L20.16 313.55 L20.06 309.5         L21.61 309.08 L21.61 304.77 L20.26 303.96 L20.26 300.51 C26.16 298.42 30.39 292.81 30.39 286.2" class="st10"/>
				<path d="M13.26 301.01 L13.26 337.66" class="st10"/>
				<path d="M17.09 275.87 A1.62117 1.62117 -180 1 0 13.85 275.87 A1.62117 1.62117 -180 1 0 17.09 275.87" class="st10"/>
			</g>
			<g id="shape10-34" v:mID="10" v:groupContext="groupContent">
				<v:textBlock v:margins="rect(4,4,4,4)"/>
				<v:textRect cx="36" cy="359.002" width="73.03" height="32.0037"/>
				<text x="4.88" y="356" class="st7" v:langID="1033"><v:paragraph v:horizAlign="1"/><v:tabList/>Plaintext User<v:lf/><tspan x="27.38" dy="1.2em" class="st11">Key</tspan></text>			</g>
		</g>
		<g id="shape12-37" v:mID="12" v:groupContext="shape" transform="translate(60.929,-99.5)">
			<title>Arrow - Short Solid.281</title>
			<path d="M0 334 L83.55 334" class="st12"/>
		</g>
		<g id="shape13-43" v:mID="13" v:groupContext="shape" transform="translate(126.374,-117.5)">
			<title>Number.282</title>
			<desc>1</desc>
			<v:textBlock v:margins="rect(4,4,4,4)"/>
			<v:textRect cx="9.07031" cy="334" width="18.15" height="18"/>
			<ellipse cx="9.07031" cy="334" rx="9.07031" ry="9" class="st14"/>
			<text x="5.18" y="338.2" class="st15" v:langID="1033"><v:paragraph v:horizAlign="1"/><v:tabList/>1</text>		</g>
		<g id="shape14-48" v:mID="14" v:groupContext="shape" transform="translate(378.514,-234.5)">
			<title>Number.283</title>
			<desc>2</desc>
			<v:textBlock v:margins="rect(4,4,4,4)"/>
			<v:textRect cx="9.07031" cy="334" width="18.15" height="18"/>
			<ellipse cx="9.07031" cy="334" rx="9.07031" ry="9" class="st14"/>
			<text x="5.18" y="338.2" class="st15" v:langID="1033"><v:paragraph v:horizAlign="1"/><v:tabList/>2</text>		</g>
		<g id="shape15-52" v:mID="15" v:groupContext="shape" transform="translate(225.514,-108.5)">
			<title>Arrow - Short Solid.284</title>
			<path d="M0 343 L10.5 343 A3 3 -180 0 0 13.5 340 L13.5 211 A3 3 0 0 1 16.5 208 L62.96 208" class="st12"/>
		</g>
		<g id="shape16-57" v:mID="16" v:groupContext="shape" transform="translate(232.264,-77)">
			<title>Number.286</title>
			<desc>3</desc>
			<v:textBlock v:margins="rect(4,4,4,4)"/>
			<v:textRect cx="9.07031" cy="334" width="18.15" height="18"/>
			<ellipse cx="9.07031" cy="334" rx="9.07031" ry="9" class="st14"/>
			<text x="5.18" y="338.2" class="st15" v:langID="1033"><v:paragraph v:horizAlign="1"/><v:tabList/>3</text>		</g>
	</g>
</svg>